HIERARCHY
ROOT RootJoint
{
    OFFSET   0.000000   0.000000   0.000000
    CHANNELS 6 Xposition Yposition Zposition Xrotation Yrotation Zrotation
    JOINT pelvis_lowerback
    {
        OFFSET   0.000000   0.093605   0.000000
        CHANNELS 3 Xrotation Yrotation Zrotation
        JOINT lowerback_torso
        {
            OFFSET   0.000000   0.100000   0.000000
            CHANNELS 3 Xrotation Yrotation Zrotation
            JOINT torso_head
            {
                OFFSET   0.000000   0.282350   0.000000
                CHANNELS 3 Xrotation Yrotation Zrotation
                End Site
                {
                    OFFSET   0.000000   0.192650   0.000000
                }
            }
            JOINT rTorso_Clavicle
            {
                OFFSET  -0.001000   0.157500   0.000000
                CHANNELS 3 Xrotation Yrotation Zrotation
                JOINT rShoulder
                {
                    OFFSET  -0.117647   0.000000   0.000000
                    CHANNELS 3 Xrotation Yrotation Zrotation
                    JOINT rElbow
                    {
                        OFFSET  -0.245000   0.000000   0.000000
                        CHANNELS 3 Xrotation Yrotation Zrotation
                        JOINT rWrist
                        {
                            OFFSET  -0.240000   0.000000   0.000000
                            CHANNELS 3 Xrotation Yrotation Zrotation
                            End Site
                            {
                                OFFSET  -0.116353  -0.002500   0.000000
                            }
                        }
                    }
                }
            }
            JOINT lTorso_Clavicle
            {
                OFFSET   0.001000   0.157500   0.000000
                CHANNELS 3 Xrotation Yrotation Zrotation
                JOINT lShoulder
                {
                    OFFSET   0.117647   0.000000   0.000000
                    CHANNELS 3 Xrotation Yrotation Zrotation
                    JOINT lElbow
                    {
                        OFFSET   0.245000   0.000000   0.000000
                        CHANNELS 3 Xrotation Yrotation Zrotation
                        JOINT lWrist
                        {
                            OFFSET   0.240000   0.000000   0.000000
                            CHANNELS 3 Xrotation Yrotation Zrotation
                            End Site
                            {
                                OFFSET   0.116353  -0.002500   0.000000
                            }
                        }
                    }
                }
            }
        }
    }
    JOINT rHip
    {
        OFFSET  -0.100000  -0.051395   0.000000
        CHANNELS 3 Xrotation Yrotation Zrotation
        JOINT rKnee
        {
            OFFSET   0.000000  -0.410000   0.000000
            CHANNELS 3 Xrotation Yrotation Zrotation
            JOINT rAnkle
            {
                OFFSET   0.000000  -0.390000   0.000000
                CHANNELS 3 Xrotation Yrotation Zrotation
                JOINT rToeJoint
                {
                    OFFSET   0.000000  -0.050000   0.130000
                    CHANNELS 3 Xrotation Yrotation Zrotation
                    End Site
                    {
                        OFFSET  -0.010000   0.002000   0.060000
                    }
                }
            }
        }
    }
    JOINT lHip
    {
        OFFSET   0.100000  -0.051395   0.000000
        CHANNELS 3 Xrotation Yrotation Zrotation
        JOINT lKnee
        {
            OFFSET   0.000000  -0.410000   0.000000
            CHANNELS 3 Xrotation Yrotation Zrotation
            JOINT lAnkle
            {
                OFFSET   0.000000  -0.390000   0.000000
                CHANNELS 3 Xrotation Yrotation Zrotation
                JOINT lToeJoint
                {
                    OFFSET   0.000000  -0.050000   0.130000
                    CHANNELS 3 Xrotation Yrotation Zrotation
                    End Site
                    {
                        OFFSET   0.010000   0.002000   0.060000
                    }
                }
            }
        }
    }
}
MOTION
Frames: 11
Frame Time:   0.008333
 -2.376719   0.925631   3.975860   0.000000   0.000000   0.000000   0.000000   0.000000   0.000000   0.000000   0.000000   0.000000   0.000000   0.000000   0.000000   0.000000   0.000000   0.000000   0.000000   0.000000   0.000000   0.000000   0.000000   0.000000   0.000000   0.000000   0.000000   0.000000   0.000000   0.000000   0.000000   0.000000   0.000000   0.000000   0.000000   0.000000   0.000000   0.000000   0.000000   0.000000   0.000000   0.000000   0.000000   0.000000   0.000000   0.000000   0.000000   0.000000   0.000000   0.000000   0.000000   0.000000   0.000000   0.000000   0.000000   0.000000   0.000000   0.000000   0.000000   0.000000   0.000000   0.000000   0.000000
 -2.377579   0.925771   3.974242   1.931062   0.070581  -0.535159  -2.130616   0.039275   0.309414   0.250536  -0.304067   0.274800  -0.029374   0.339619  -0.094051   0.343585  -0.797408  -0.242072   1.292883   0.710065   2.227077   0.008247   0.458144  -0.006770   0.448284  -0.019813  -1.994849   0.503442   0.635550   0.095344   1.809374  -0.041658  -2.093471   0.003706  -0.217131   0.004471   0.397619  -0.440801   1.546815  -2.608750  -0.089487   0.756160   1.092570  -0.002142   0.000084  -0.720572  -0.131843  -0.227264  -0.152118  -0.000003   0.000169  -2.501880   0.185457   0.691311   0.209916  -0.000289   0.000514  -1.342140   0.269713  -0.743150   0.830320   0.004271   0.003860
 -2.378703   0.926783   3.972479   3.878787   0.101361  -1.026207  -4.090513   0.067613   0.511516   0.480279  -0.602496   0.547361  -0.058427   0.663931  -0.180253   0.676594  -1.646835   0.160068   2.547683   1.401131   4.933721   0.018359   0.880672  -0.011979   0.941266   0.031118  -3.331697   0.997065   1.337823  -0.377564   3.615287  -0.059072  -4.633412   0.007583  -0.390027   0.007323   0.860416  -0.822407   2.463568  -5.179422  -0.211007   1.542311   2.103500  -0.004404   0.000014  -1.397376  -0.250439  -0.438903  -0.331662   0.000144   0.000352  -4.869155   0.355116   1.355088   0.697103  -0.000977   0.001549  -2.352863   0.540913  -1.437662   1.460376   0.006350   0.005806
 -2.379979   0.927875   3.970524   5.795985   0.166810  -1.547436  -5.867001   0.056138   0.720986   0.725446  -0.904731   0.810377  -0.077737   0.965498  -0.266149   1.000580  -2.486705   0.930264   3.755613   2.105688   7.930347   0.027451   1.257846  -0.015642   1.413235   0.022682  -3.986311   1.468632   2.019290  -1.201079   5.406204  -0.130487  -7.466038   0.010840  -0.535830   0.009139   1.305700  -1.118312   2.742777  -7.636483  -0.370106   2.395449   3.022523  -0.006354   0.000407  -2.032435  -0.357977  -0.637020  -0.515300   0.000366   0.000415  -7.108235   0.486172   2.047337   0.970403  -0.001210   0.001971  -3.442081   0.807331  -2.077205   2.082527   0.007703   0.007352
 -2.381315   0.928851   3.968423   7.661347   0.261767  -2.044731  -7.468990   0.020087   0.897057   0.992750  -1.205644   1.049810  -0.085230   1.246553  -0.348497   1.321531  -3.284866   1.929154   4.915442   2.856621  11.119477   0.034932   1.601960  -0.018171   1.862783  -0.020547  -4.167957   1.918290   2.647249  -2.241104   7.179838  -0.295445 -10.493480   0.013576  -0.669497   0.010408   1.731579  -1.389896   2.588345  -9.954475  -0.557511   3.232536   3.866591  -0.007842   0.001037  -2.627092  -0.455445  -0.822531  -0.693251   0.000594   0.000387  -9.259517   0.584604   2.699658   1.137587  -0.001225   0.002069  -4.474498   1.066774  -2.667750   2.637208   0.008313   0.008298
 -2.382684   0.929314   3.966188   9.450231   0.387811  -2.552889  -8.892902  -0.036527   1.074708   1.284606  -1.503959   1.276453  -0.082048   1.508522  -0.426480   1.637944  -4.023497   3.036187   6.022702   3.671433  14.424988   0.040693   1.921763  -0.019885   2.293345  -0.063972  -4.037505   2.342020   3.205085  -3.391445   8.929809  -0.574845 -13.644893   0.015939  -0.799754   0.011407   2.139895  -1.682452   2.148870 -12.112413  -0.768547   4.072056   4.652394  -0.008895   0.001831  -3.183747  -0.544089  -0.996245  -0.866333   0.000805   0.000286 -11.380837   0.651578   3.340034   1.101377  -0.000924   0.001538  -5.528119   1.321584  -3.210379   3.152207   0.008502   0.008877
 -2.384007   0.929916   3.964052  11.187383   0.493249  -2.921063 -10.207697  -0.079681   1.137041   1.577157  -1.776054   1.444580  -0.064912   1.753604  -0.502142   1.948389  -4.696262   4.251682   7.072096   4.559622  17.832861   0.045145   2.223751  -0.020874   2.709613  -0.084008  -3.723561   2.738601   3.707573  -4.630775  10.650536  -0.964362 -16.886099   0.017951  -0.926614   0.012121   2.530852  -1.995182   1.564003 -14.125009  -0.989429   4.768899   5.379651  -0.009577   0.002203  -3.702540  -0.624962  -1.159055  -1.015779   0.000949   0.000244 -13.404050   0.699320   3.817538   1.230790  -0.000918   0.001604  -6.327992   1.567240  -3.730484   3.593940   0.008336   0.008864
 -2.384959   0.929762   3.961939  12.330247   0.770767  -3.015437 -10.939130  -0.065644   0.974460   1.947036  -1.947396   1.599626  -0.111361   1.885594  -0.787599   2.278700  -4.991084   4.798050   8.257071   5.098679  21.453738   0.047444   2.521545  -0.022434   3.208074   0.015728  -2.441739   2.749352   4.087865  -5.240284  12.322475  -2.006186 -20.423607   0.019549  -1.061660   0.012580   2.909529  -2.094385   0.193456 -15.484781  -1.217624   5.169986   6.092140  -0.010102   0.002980  -4.182924  -0.989235  -1.587522  -0.945915   0.000774   0.000064 -15.866833   1.430193   4.013806   4.079945  -0.003719   0.030478  -8.450173   1.800046  -4.332143   3.633111   0.006821   0.007525
 -2.385638   0.928650   3.960549  13.236765   0.881332  -3.031248 -11.635181   0.040660   0.850170   2.344796  -2.049005   1.724291  -0.130936   2.015491  -1.070834   2.572563  -5.224820   5.144797   9.326048   5.672717  24.733860   0.047474   2.802509  -0.022679   3.701770   0.147419  -1.124856   2.743191   4.412953  -5.680431  13.919907  -3.174348 -23.854061   0.020946  -1.209682   0.012976   3.269771  -2.306429  -1.160241 -16.594597  -1.418058   5.564091   6.809419  -0.010803   0.002638  -4.631339  -1.328027  -1.990862  -0.867210   0.000599  -0.000190 -18.082172   2.177441   4.185226   7.431520  -0.003443   0.053906 -10.388850   2.057904  -4.899940   3.626743   0.005434   0.005953
 -2.386120   0.926644   3.959774  14.044423   0.875552  -2.971894 -12.361205   0.173617   0.733198   2.680152  -2.112632   1.818185  -0.149144   2.139175  -1.329826   2.835035  -5.441019   5.366890  10.291876   6.251692  27.716339   0.046025   3.065885  -0.021840   4.171752   0.283611   0.021388   2.743348   4.737588  -6.055020  15.377193  -4.354610 -27.074648   0.021346  -1.347270   0.012763   3.611062  -2.538807  -2.430363 -17.598485  -1.612597   5.950624   7.498363  -0.011542   0.001628  -5.051041  -1.641558  -2.369512  -0.789467   0.000418  -0.000460 -20.040325   2.877019   4.332321  10.715744  -0.001258   0.066529 -12.182271   2.317916  -5.422488   3.658235   0.004445   0.005052
 -2.386469   0.923853   3.959447  14.783083   0.812227  -2.835656 -13.101081   0.305889   0.601473   2.947798  -2.162016   1.875523  -0.175363   2.255141  -1.567303   3.077127  -5.657940   5.509887  11.170191   6.816598  30.447936   0.043551   3.307511  -0.020281   4.615970   0.394463   1.012260   2.753489   5.066504  -6.394303  16.681780  -5.508197 -30.058521   0.020887  -1.470582   0.012080   3.931188  -2.747526  -3.633476 -18.532363  -1.803914   6.319756   8.146535  -0.012240   0.000471  -5.444139  -1.932007  -2.725127  -0.714090   0.000234  -0.000702 -21.801126   3.520862   4.460851  13.833271   0.000785   0.071500 -13.851214   2.573092  -5.897816   3.700784   0.003669   0.004383
